<svg width="342" height="88" viewBox="0 0 342 88" fill="none" xmlns="http://www.w3.org/2000/svg">
<g style="mix-blend-mode:darken">
<g clip-path="url(#clip0_632_588)">
<path d="M278.569 77.6025L342 79.5034L278.569 81.3282V77.6025ZM63.4315 77.6786L0 79.3418L63.4315 81.4137V77.6786Z" fill="#93D500"/>
<path d="M87.1626 83.6758L83.0966 70.3413H81.2346L77.1591 83.6758L72.9221 70.3413H70.4141L76.1616 87.7056H78.0331L82.1276 75.0364L86.1936 87.7056H88.0936L93.8411 70.3413H91.4091L87.1626 83.6758Z" fill="#93D500"/>
<path d="M109.098 79.5985H117.772V77.2889H109.098V72.6508H118.931V70.3413H106.78V87.7056H118.931V85.3866H109.098V79.5985Z" fill="#93D500"/>
<path d="M135.128 70.3413H132.81V87.7056H143.802V85.3866H135.128V70.3413Z" fill="#93D500"/>
<path d="M159.42 70.3413H157.102V87.7056H168.093V85.3866H159.42V70.3413Z" fill="#93D500"/>
<path d="M192.964 83.2098L183.683 70.3125L183.626 70.341H181.393V87.7053H183.711V74.2853L193.468 87.7053H195.282V70.341H192.964V83.2098Z" fill="#93D500"/>
<path d="M212.049 79.5985H220.732V77.2889H212.049V72.6508H221.882V70.3413H209.741V87.7056H221.882V85.3866H212.049V79.5985Z" fill="#93D500"/>
<path d="M241.347 77.6974C240.642 77.5453 239.95 77.3388 239.276 77.0796C238.837 76.9189 238.426 76.6878 238.06 76.3953C237.808 76.1872 237.612 75.9193 237.49 75.616C237.379 75.2886 237.325 74.9447 237.329 74.599C237.336 74.2717 237.407 73.9489 237.538 73.6486C237.678 73.3484 237.883 73.0824 238.136 72.8692C238.418 72.6327 238.74 72.4492 239.086 72.3275C239.496 72.1857 239.926 72.115 240.359 72.1184C241.115 72.1168 241.863 72.2621 242.563 72.5461C243.34 72.8768 244.054 73.3399 244.672 73.9147L244.91 74.1238L246.249 72.1659L246.059 72.0044C245.301 71.3306 244.438 70.7849 243.504 70.3886C242.514 70.0176 241.464 69.837 240.407 69.8564C239.675 69.8477 238.947 69.9733 238.26 70.2271C237.629 70.4597 237.048 70.8114 236.55 71.263C236.059 71.6991 235.67 72.2377 235.41 72.8407C235.139 73.4707 235.003 74.1507 235.011 74.8366C234.993 75.5078 235.106 76.176 235.343 76.804C235.567 77.3704 235.918 77.8777 236.369 78.2867C236.88 78.7318 237.461 79.0884 238.089 79.3416C238.859 79.6547 239.654 79.9058 240.464 80.0925C241.137 80.2417 241.797 80.4419 242.44 80.6913C242.861 80.8451 243.253 81.0701 243.599 81.3566C243.843 81.5599 244.033 81.8213 244.15 82.1169C244.257 82.4222 244.312 82.7436 244.311 83.0673C244.325 83.4277 244.255 83.7863 244.109 84.1157C243.962 84.4451 243.742 84.7367 243.466 84.9682C242.8 85.4935 241.966 85.7601 241.119 85.719C240.169 85.7356 239.227 85.5374 238.364 85.1393C237.473 84.6892 236.663 84.0915 235.97 83.3715L235.752 83.1433L234.317 85.0442L234.488 85.2153C235.357 86.1069 236.389 86.8232 237.528 87.3252C238.643 87.7955 239.843 88.0317 241.053 88.019C241.809 88.026 242.561 87.9038 243.276 87.6579C243.934 87.4359 244.539 87.0799 245.052 86.6124C245.546 86.152 245.94 85.5958 246.211 84.9777C246.495 84.3074 246.637 83.5859 246.629 82.8582C246.661 82.2406 246.558 81.6235 246.328 81.0493C246.099 80.4751 245.748 79.9574 245.299 79.5317C244.152 78.6059 242.795 77.9761 241.347 77.6974Z" fill="#93D500"/>
<path d="M270.019 79.5223C268.864 78.5988 267.5 77.9723 266.048 77.6975C265.343 77.5441 264.65 77.3376 263.977 77.0797C263.539 76.9146 263.129 76.6838 262.761 76.3954C262.51 76.1879 262.317 75.9196 262.2 75.6161C262.089 75.2887 262.034 74.9448 262.039 74.5991C262.042 74.2712 262.113 73.9476 262.248 73.6487C262.381 73.3471 262.583 73.0804 262.837 72.8693C263.118 72.6328 263.44 72.4492 263.787 72.3276C264.199 72.1858 264.633 72.1151 265.069 72.1185C265.822 72.116 266.567 72.2613 267.264 72.5462C268.043 72.8725 268.757 73.336 269.373 73.9148L269.61 74.1239L270.959 72.166L270.769 72.0045C270.007 71.3305 269.141 70.7849 268.204 70.3887C267.215 70.0171 266.164 69.8365 265.107 69.8565C264.375 69.8495 263.648 69.9751 262.96 70.2271C262.331 70.4641 261.751 70.8153 261.25 71.2631C260.765 71.7047 260.377 72.2418 260.11 72.8408C259.839 73.4708 259.703 74.1508 259.711 74.8367C259.698 75.5076 259.811 76.1749 260.044 76.8041C260.267 77.3729 260.622 77.8809 261.079 78.2868C261.586 78.736 262.168 79.093 262.799 79.3417C263.565 79.6561 264.356 79.9072 265.164 80.0926C265.84 80.242 266.504 80.4421 267.15 80.6914C267.569 80.8497 267.96 81.0743 268.309 81.3567C268.549 81.5611 268.736 81.8225 268.85 82.117C268.961 82.4213 269.016 82.7434 269.012 83.0674C269.025 83.4278 268.955 83.7864 268.809 84.1158C268.662 84.4452 268.442 84.7368 268.166 84.9683C267.5 85.4936 266.667 85.7602 265.82 85.7191C264.872 85.7355 263.934 85.5373 263.074 85.1393C262.182 84.6893 261.373 84.0916 260.68 83.3716L260.452 83.1434L259.018 85.0443L259.198 85.2154C260.064 86.1067 261.092 86.823 262.229 87.3253C263.344 87.7938 264.543 88.0299 265.753 88.0191C266.512 88.0244 267.267 87.9023 267.986 87.658C268.642 87.4382 269.244 87.0819 269.753 86.6125C270.252 86.1574 270.647 85.5998 270.912 84.9778C271.195 84.3075 271.337 83.586 271.33 82.8583C271.363 82.2408 271.263 81.6233 271.037 81.0477C270.811 80.4721 270.463 79.9519 270.019 79.5223Z" fill="#93D500"/>
<path d="M116.954 30.5941C116.954 30.1886 116.954 29.7799 116.954 29.368C118.169 28.0889 119.63 27.0703 121.25 26.3742C122.87 25.6782 124.615 25.3192 126.378 25.3192C126.587 25.3192 126.787 25.3192 126.996 25.3192C122.445 29.0199 119.539 34.3693 118.911 40.2029C117.612 37.1667 116.946 33.8969 116.954 30.5941ZM119.595 22.1258C122.759 21.489 125.172 18.3811 126.606 15.2827C125.43 15.3636 124.263 15.5513 123.12 15.8435C122.158 16.0966 121.322 16.6955 120.773 17.5257C119.832 18.973 119.057 20.5226 118.465 22.1448C118.838 22.2203 119.222 22.2203 119.595 22.1448V22.1258Z" fill="#006098"/>
<path d="M143.896 22.7816C141.931 21.9481 139.818 21.5182 137.683 21.5176C133.803 21.5454 130.047 22.8852 127.024 25.3193C126.815 25.3193 126.616 25.3193 126.407 25.3193C124.644 25.3193 122.899 25.6782 121.279 26.3743C119.659 27.0703 118.197 28.0889 116.983 29.3681C117.103 26.8985 117.603 24.4621 118.465 22.1449C118.838 22.2204 119.222 22.2204 119.595 22.1449C122.759 21.5081 125.172 18.4002 126.606 15.3018C127.053 15.3018 127.49 15.2543 127.936 15.2543C133.95 15.2352 139.536 18.0675 143.896 22.7816ZM124.336 11.3765C126.15 9.40913 131.185 6.98554 131.622 5.67396C132.059 4.36237 130.948 -0.598855 126.397 0.066444C121.847 0.731743 121.79 9.72278 124.336 11.4145V11.3765Z" fill="#93D500"/>
<path d="M120.774 17.5259C119.832 18.9732 119.057 20.5228 118.465 22.145C114.029 21.4036 112.499 10.5783 114.608 4.86621C114.685 7.2293 115.685 9.46792 117.394 11.1011C119.103 12.7343 121.384 13.6317 123.747 13.6006C125.05 13.5928 126.339 13.3381 127.547 12.8498C127.289 13.6824 126.971 14.4955 126.597 15.2829C125.42 15.3638 124.253 15.5515 123.111 15.8436C122.152 16.0988 121.32 16.6975 120.774 17.5259ZM130.274 25.8991C129.231 25.5829 128.152 25.4009 127.063 25.3574C122.495 29.0373 119.566 34.3729 118.912 40.2031C117.463 36.7798 116.813 33.071 117.012 29.3587C116.113 30.2993 115.361 31.3693 114.779 32.5331C115.072 36.9094 116.474 41.1389 118.855 44.8221C119.717 46.1505 120.707 47.3919 121.809 48.5288C121.401 47.0714 121.156 45.5733 121.078 44.0618C120.593 36.6009 124.545 29.1686 130.236 25.9467L130.274 25.8991Z" fill="#3CB4E5"/>
<path d="M5.38647 21.0518H28.0155V24.4638H9.35748V36.5342H26.106V39.8987H9.35748V52.2542H28.2815V55.6663H5.38647V21.0518Z" fill="#006098"/>
<path d="M37.24 21.0518H41.3725L52.6585 39.5946L64.0015 21.0518H68.134V55.6758H64.163V27.7808L52.7155 46.2761H52.554L41.154 27.7808V55.6758H37.24V21.0518Z" fill="#006098"/>
<path d="M78.8501 21.0518H90.0411C97.9356 21.0518 103.075 25.2051 103.075 32.0292V32.1337C103.075 39.452 97.1376 43.4058 89.5566 43.4533H82.8306V55.6758H78.8501V21.0518ZM89.6706 40.0603C95.4466 40.0603 99.0471 36.9429 99.0471 32.1908V32.1432C99.0471 27.0965 95.4466 24.4258 89.8226 24.4258H82.8306V40.0603H89.6706Z" fill="#006098"/>
<path d="M147.25 21.0519H151.544L160.293 49.5647L168.929 20.9663H172.321L181.013 49.5647L189.763 21.0519H193.8L182.723 55.923H179.227L170.534 27.971L161.842 55.923H158.346L147.25 21.0519Z" fill="#006098"/>
<path d="M202.169 21.0518H224.798V24.4638H206.15V36.5342H222.898V39.8987H206.15V52.2542H225.074V55.6663H202.179L202.169 21.0518Z" fill="#006098"/>
<path d="M234.013 21.0518H246.686C250.923 21.0518 254.286 22.2398 256.433 24.2642C257.39 25.1829 258.143 26.2918 258.646 27.5195C259.148 28.7471 259.388 30.0664 259.35 31.3924V31.4874C259.35 36.9809 255.692 40.2884 250.553 41.4764L260.518 55.6758H255.768L246.439 42.2178H238.013V55.6758H234.032L234.013 21.0518ZM245.993 38.8532C252.035 38.8532 255.379 36.002 255.379 31.6395V31.535C255.379 26.9824 251.987 24.4638 246.42 24.4638H237.994V38.8532H245.993Z" fill="#006098"/>
<path d="M137.75 23.7986C136.057 23.8049 134.378 24.1106 132.791 24.7015C135.244 25.8369 137.346 27.6114 138.878 29.8391C140.409 32.0668 141.314 34.6657 141.497 37.3633C141.679 40.061 141.133 42.7581 139.916 45.1721C138.698 47.5861 136.854 49.628 134.577 51.0838C132.299 52.5397 129.673 53.3559 126.971 53.447C124.27 53.5381 121.595 52.9006 119.224 51.6014C116.854 50.3022 114.877 48.3891 113.5 46.0627C112.123 43.7362 111.396 41.0819 111.397 38.3781C111.394 35.0617 112.493 31.8383 114.523 29.216C114.613 27.3341 114.903 25.4671 115.387 23.6465C112.309 25.9669 110.036 29.1941 108.887 32.8744C107.738 36.5546 107.771 40.5026 108.981 44.1631C110.192 47.8236 112.519 51.0123 115.635 53.2809C118.751 55.5494 122.5 56.7835 126.353 56.8097C130.207 56.8359 133.972 55.6528 137.119 53.4268C140.266 51.2008 142.636 48.044 143.896 44.4003C145.156 40.7566 145.242 36.8094 144.143 33.1139C143.044 29.4184 140.815 26.1605 137.769 23.7986H137.75Z" fill="#006098"/>
<path d="M268.356 21.0518H274.749L284.249 36.9809L293.749 21.0518H300.2V55.6758H294.11V31.1928L284.278 47.217H284.116L274.331 31.2878V55.6758H268.356V21.0518Z" fill="#93D500"/>
<path d="M310.042 21.0518H333.364V26.2411H316.122V35.6408H331.407V40.8396H316.122V50.477H333.63V55.6758H310.042V21.0518Z" fill="#93D500"/>
</g>
</g>
<defs>
<clipPath id="clip0_632_588">
<rect width="342" height="88" fill="white"/>
</clipPath>
</defs>
</svg>
